<mxfile host="app.diagrams.net" modified="2023-08-11T10:50:29.041Z" agent="Mozilla/5.0 (X11; Linux x86_64) AppleWebKit/537.36 (KHTML, like Gecko) Chrome/115.0.0.0 Safari/537.36" etag="ERHuFE0FvrdEGVtCrEq3" version="21.6.8" type="github">
  <diagram name="Page-1" id="VlamS4Jn9fJyHJ2dLB3f">
    <mxGraphModel dx="3493" dy="-182" grid="1" gridSize="10" guides="1" tooltips="1" connect="1" arrows="1" fold="1" page="1" pageScale="1" pageWidth="850" pageHeight="1100" math="0" shadow="0">
      <root>
        <mxCell id="0" />
        <mxCell id="1" parent="0" />
        <mxCell id="kMDctbQCwmmLpIyoewuX-4" value="&lt;font style=&quot;font-size: 24px;&quot;&gt;Flashing bootloader files on brand new board&amp;nbsp;&lt;/font&gt;" style="text;html=1;align=center;verticalAlign=middle;resizable=0;points=[];autosize=1;strokeColor=none;fillColor=none;" vertex="1" parent="1">
          <mxGeometry x="-1495" y="1203" width="510" height="40" as="geometry" />
        </mxCell>
        <mxCell id="kMDctbQCwmmLpIyoewuX-5" value="" style="edgeStyle=orthogonalEdgeStyle;rounded=0;orthogonalLoop=1;jettySize=auto;html=1;" edge="1" parent="1" source="kMDctbQCwmmLpIyoewuX-6" target="kMDctbQCwmmLpIyoewuX-8">
          <mxGeometry relative="1" as="geometry" />
        </mxCell>
        <mxCell id="kMDctbQCwmmLpIyoewuX-6" value="Gather image files" style="rounded=1;whiteSpace=wrap;html=1;" vertex="1" parent="1">
          <mxGeometry x="-1560" y="1290" width="120" height="60" as="geometry" />
        </mxCell>
        <mxCell id="kMDctbQCwmmLpIyoewuX-7" value="" style="edgeStyle=orthogonalEdgeStyle;rounded=0;orthogonalLoop=1;jettySize=auto;html=1;" edge="1" parent="1" source="kMDctbQCwmmLpIyoewuX-8" target="kMDctbQCwmmLpIyoewuX-10">
          <mxGeometry relative="1" as="geometry" />
        </mxCell>
        <mxCell id="kMDctbQCwmmLpIyoewuX-8" value="Invoke PE gdb server" style="whiteSpace=wrap;html=1;rounded=1;" vertex="1" parent="1">
          <mxGeometry x="-1376" y="1290" width="120" height="60" as="geometry" />
        </mxCell>
        <mxCell id="kMDctbQCwmmLpIyoewuX-9" value="" style="edgeStyle=orthogonalEdgeStyle;rounded=0;orthogonalLoop=1;jettySize=auto;html=1;" edge="1" parent="1" source="kMDctbQCwmmLpIyoewuX-10" target="kMDctbQCwmmLpIyoewuX-12">
          <mxGeometry relative="1" as="geometry" />
        </mxCell>
        <mxCell id="kMDctbQCwmmLpIyoewuX-10" value="Invoke gdb client" style="whiteSpace=wrap;html=1;rounded=1;" vertex="1" parent="1">
          <mxGeometry x="-1210" y="1290" width="118" height="60" as="geometry" />
        </mxCell>
        <mxCell id="kMDctbQCwmmLpIyoewuX-11" value="" style="edgeStyle=none;html=1;fontSize=24;" edge="1" parent="1" source="kMDctbQCwmmLpIyoewuX-12" target="kMDctbQCwmmLpIyoewuX-14">
          <mxGeometry relative="1" as="geometry" />
        </mxCell>
        <mxCell id="kMDctbQCwmmLpIyoewuX-12" value="Provide load / flash command" style="whiteSpace=wrap;html=1;rounded=1;" vertex="1" parent="1">
          <mxGeometry x="-1030" y="1290" width="120" height="60" as="geometry" />
        </mxCell>
        <mxCell id="kMDctbQCwmmLpIyoewuX-13" value="" style="edgeStyle=none;html=1;" edge="1" parent="1" source="kMDctbQCwmmLpIyoewuX-14" target="kMDctbQCwmmLpIyoewuX-16">
          <mxGeometry relative="1" as="geometry" />
        </mxCell>
        <mxCell id="kMDctbQCwmmLpIyoewuX-14" value="Wait for operation to be complete and kill the client gdb application" style="rounded=1;whiteSpace=wrap;html=1;strokeColor=default;fontFamily=Helvetica;fontSize=12;fontColor=default;fillColor=default;" vertex="1" parent="1">
          <mxGeometry x="-1030" y="1513.29" width="120" height="60" as="geometry" />
        </mxCell>
        <mxCell id="kMDctbQCwmmLpIyoewuX-15" value="" style="edgeStyle=none;html=1;" edge="1" parent="1" source="kMDctbQCwmmLpIyoewuX-16" target="kMDctbQCwmmLpIyoewuX-19">
          <mxGeometry relative="1" as="geometry" />
        </mxCell>
        <mxCell id="kMDctbQCwmmLpIyoewuX-16" value="Connect with boot-loader console&amp;nbsp;" style="rounded=1;whiteSpace=wrap;html=1;strokeColor=default;fontFamily=Helvetica;fontSize=12;fontColor=default;fillColor=default;" vertex="1" parent="1">
          <mxGeometry x="-1200" y="1513.29" width="120" height="60" as="geometry" />
        </mxCell>
        <mxCell id="kMDctbQCwmmLpIyoewuX-17" value="" style="edgeStyle=none;html=1;" edge="1" parent="1" source="kMDctbQCwmmLpIyoewuX-19" target="kMDctbQCwmmLpIyoewuX-21">
          <mxGeometry relative="1" as="geometry" />
        </mxCell>
        <mxCell id="kMDctbQCwmmLpIyoewuX-18" value="" style="edgeStyle=none;html=1;entryX=0.5;entryY=1;entryDx=0;entryDy=0;" edge="1" parent="1" source="kMDctbQCwmmLpIyoewuX-19" target="kMDctbQCwmmLpIyoewuX-8">
          <mxGeometry relative="1" as="geometry" />
        </mxCell>
        <mxCell id="kMDctbQCwmmLpIyoewuX-19" value="Check the &lt;br&gt;bootloader &lt;br&gt;version&amp;nbsp;" style="rhombus;whiteSpace=wrap;html=1;rounded=1;" vertex="1" parent="1">
          <mxGeometry x="-1376" y="1479" width="122.5" height="128.58" as="geometry" />
        </mxCell>
        <mxCell id="kMDctbQCwmmLpIyoewuX-20" value="Fail" style="text;html=1;align=center;verticalAlign=middle;resizable=0;points=[];autosize=1;strokeColor=none;fillColor=none;" vertex="1" parent="1">
          <mxGeometry x="-1305" y="1410" width="40" height="30" as="geometry" />
        </mxCell>
        <mxCell id="kMDctbQCwmmLpIyoewuX-21" value="Show the version" style="whiteSpace=wrap;html=1;rounded=1;" vertex="1" parent="1">
          <mxGeometry x="-1373.5" y="1680" width="120" height="60" as="geometry" />
        </mxCell>
        <mxCell id="kMDctbQCwmmLpIyoewuX-22" value="Ok" style="text;html=1;align=center;verticalAlign=middle;resizable=0;points=[];autosize=1;strokeColor=none;fillColor=none;" vertex="1" parent="1">
          <mxGeometry x="-1305" y="1620" width="40" height="30" as="geometry" />
        </mxCell>
      </root>
    </mxGraphModel>
  </diagram>
</mxfile>
